<?xml version="1.0" encoding="utf-8"?>
<!-- Generator: Adobe Illustrator 20.1.0, SVG Export Plug-In . SVG Version: 6.00 Build 0)  -->
<svg version="1.1" xmlns="http://www.w3.org/2000/svg" xmlns:xlink="http://www.w3.org/1999/xlink" x="0px" y="0px"
	 viewBox="0 0 600 600" style="enable-background:new 0 0 600 600;" xml:space="preserve">
<style type="text/css">
	.st0{display:none;}
</style>
<g id="Layer_1">
	<g>
		<path d="M193.8,362.5c12.8,2.8,26.7,5.1,41.5,6.7c-4.8-7.5-9.6-15.3-14.1-23.2c-4.5-7.7-8.7-15.5-12.8-23.3
			C202.7,336.2,197.8,349.6,193.8,362.5z"/>
		<path d="M300.4,208.3c9,0,17.9,0.2,26.7,0.6c-8.7-11.6-17.6-22.3-26.4-31.9c-9,9.7-17.9,20.4-26.6,31.9
			C282.7,208.5,291.5,208.3,300.4,208.3z"/>
		<path d="M300.5,391.7c-9,0-17.7-0.2-26.3-0.5c8.8,11.7,17.9,22.5,27,32.4c8.8-9.7,17.6-20.5,26.4-32.5
			C318.7,391.5,309.7,391.7,300.5,391.7z"/>
		<path d="M194.2,238.6c3.9,12.6,8.7,25.6,14.2,38.9c4-7.7,8.2-15.5,12.7-23.2c4.5-7.7,9.1-15.3,13.8-22.7
			C220.7,233.4,207,235.8,194.2,238.6z"/>
		<path d="M352.1,210.7c21.2,2,41.5,5.2,60.2,9.5c0.7-3,1.4-5.9,2-8.8c10.5-51,1.4-82.2-11.4-89.7c-6.6-3.8-17.2-3.3-30,1.4
			c-14.8,5.4-31.5,16.1-48.4,30.7c-3.4,3-6.9,6.2-10.3,9.5C327,177.1,339.8,193.1,352.1,210.7z"/>
		<path d="M408.1,361.6c-4-12.6-9.1-25.8-15.1-39.6c-4.1,7.9-8.4,15.9-13,23.8c-4.6,7.9-9.2,15.5-13.8,22.9
			C381,367,395.1,364.6,408.1,361.6z"/>
		<path d="M341.5,229.1c-13.4-1-27.1-1.5-41-1.5c-13.8,0-27.6,0.5-41,1.6c-7.5,11-14.8,22.6-21.8,34.6l-8.3-4.7l8.3,4.8
			c-6.9,11.9-13.3,24-19.1,36.2c5.8,12.1,12.2,24.3,19.2,36.3c6.9,12,14.3,23.7,22,34.9c13,0.8,26.6,1.3,40.7,1.3
			c14,0,27.8-0.5,41.1-1.4c7.3-10.9,14.5-22.6,21.6-34.9c7-12.2,13.5-24.4,19.4-36.5c-5.8-11.8-12.3-23.8-19.4-36
			C356.2,251.7,349,240.1,341.5,229.1z M300.5,339.9c-22.2,0-40.2-18-40.2-40.2s18-40.2,40.2-40.2s40.2,18,40.2,40.2
			S322.7,339.9,300.5,339.9z"/>
		<path d="M366.1,231.6c4.7,7.3,9.2,14.8,13.7,22.5c4.6,7.9,8.9,15.7,13,23.4c5.7-13.3,10.5-26.3,14.4-38.7
			C394.2,235.8,380.5,233.4,366.1,231.6z"/>
		<path d="M314.7,437.4c3.8,3.6,7.5,7.1,11.3,10.3c36.1,31.1,64.8,37.8,77.2,30.6c12.9-7.4,22.3-37.9,12.6-87.3
			c-0.7-3.6-1.5-7.3-2.5-11c-18.5,4.3-39,7.5-60.8,9.5C340.1,407.5,327.4,423.6,314.7,437.4z"/>
		<path d="M489.9,274.4c-12.1-10.1-29.7-19.3-50.8-26.6c-4.3-1.5-8.7-2.9-13.3-4.2c-5.5,17.9-12.9,36.8-21.9,56.2
			c9.5,19.9,17.1,39,22.7,57c2.6-0.8,5.1-1.6,7.5-2.4c49.4-16.4,72-39.9,72-54.7C506.2,292.1,500.4,283.1,489.9,274.4z"/>
		<path d="M287.2,163.4c-2.2-2.1-4.5-4.2-6.7-6.2c-38.9-34.6-70.5-42.4-83.3-34.9c-6.6,3.8-11.4,13.3-13.8,26.7
			c-2.6,15.5-1.8,35.4,2.5,57.2c0.9,4.5,1.9,9.1,3.1,13.8c18.7-4.2,38.9-7.4,60.1-9.4C261.3,193.3,274.2,177.4,287.2,163.4z"/>
		<path d="M300,0C134.3,0,0,134.3,0,300s134.3,300,300,300s300-134.3,300-300S465.7,0,300,0z M440.1,372.4c-2.7,0.9-5.4,1.8-8.3,2.6
			c1,4.2,2,8.3,2.8,12.3c4.9,24.8,5.7,47.9,2.2,66.6c-3.7,19.9-12,34.1-24,41.1c-6,3.5-13.1,5.2-21.1,5.2
			c-21.8,0-49.4-13.1-78.2-37.9c-4.1-3.5-8.1-7.2-12.2-11.1c-3.1,3-6.2,5.9-9.3,8.6c-19.1,16.7-38.7,28.8-56.6,35.1
			c-9.4,3.4-18.2,5.1-26.1,5.1c-8.2,0-15.4-1.8-21.5-5.3c-23-13.3-31-51.6-21.3-102.4c1-5.2,2.2-10.6,3.5-16.1
			c-4.2-1.2-8.3-2.5-12.2-3.8c-23.9-8.2-44.3-19.1-58.8-31.5c-15.4-13.1-23.5-27.5-23.5-41.3c0-26.6,29.1-52.6,78.1-69.6
			c5.4-1.9,10.9-3.6,16.7-5.2c-1.3-5-2.4-10-3.3-14.9c-4.7-24.2-5.6-46.4-2.6-64.2c3.4-19.5,11.3-33.3,23.1-40.1
			c23.9-13.9,64.5,0.4,105.8,37.1c2.5,2.2,5,4.5,7.5,6.9c3.7-3.6,7.4-7,11.1-10.2c18.6-16.2,37.4-28,54.4-34.3
			c18.5-6.8,34.5-6.8,46.2-0.1c23.9,13.8,31.9,56,20.7,110.2c-0.7,3.2-1.4,6.5-2.2,9.9c4.9,1.4,9.7,2.9,14.3,4.5
			c23.3,8,42.9,18.4,56.8,29.9c15.1,12.6,23.1,26.5,23.1,40C525.2,327.1,492.6,355.1,440.1,372.4z"/>
		<path d="M175.5,243.3c-5.4,1.5-10.6,3.1-15.5,4.9c-45,15.7-65.2,37.1-65.2,51.5c0,14.9,21.7,38.4,69.3,54.6
			c3.6,1.2,7.2,2.4,11,3.5c5.7-18.6,13.2-38,22.2-57.7C188.5,280.8,181.1,261.7,175.5,243.3z"/>
		<path d="M249.2,389.7c-21.9-1.8-42.3-4.7-60.6-8.8c-1.3,5.1-2.4,10.1-3.3,14.9c-8.9,46.8-0.3,75,12,82.1c3,1.8,7,2.7,11.9,2.7
			c15.9,0,41-10.1,70-35.4c2.8-2.5,5.7-5.1,8.6-7.9C274.6,423.3,261.6,407.2,249.2,389.7z"/>
	</g>
</g>
<g id="Layer_2" class="st0">
</g>
</svg>
